<?xml version="1.0" encoding="utf-8"?>
<!-- Generator: Adobe Illustrator 21.1.0, SVG Export Plug-In . SVG Version: 6.00 Build 0)  -->
<svg version="1.1" id="Layer_1" xmlns="http://www.w3.org/2000/svg" xmlns:xlink="http://www.w3.org/1999/xlink" x="0px" y="0px"
	 viewBox="0 0 191.5 61.4" style="enable-background:new 0 0 191.5 61.4;" xml:space="preserve">
<style type="text/css">
	.st0{fill:#FFFFFF;}
	.st1{fill:#FFFF00;}
</style>
<path class="st0" d="M15.3,13.1c2.5,0,4.7,0.2,6.7,0.7c2,0.5,3.7,1.3,5.2,2.3c1.4,1,2.5,2.3,3.3,3.9c0.8,1.6,1.2,3.4,1.2,5.6v15.3
	c0,1.2-0.3,2.1-1,2.9c-0.7,0.7-1.4,1.4-2.4,1.9c-3,1.8-7.1,2.7-12.5,2.7c-2.4,0-4.6-0.2-6.5-0.7c-1.9-0.5-3.6-1.1-5-2
	c-1.4-0.9-2.5-2.1-3.2-3.5c-0.7-1.4-1.1-3-1.1-4.9c0-3.1,0.9-5.5,2.8-7.2c1.9-1.7,4.7-2.7,8.7-3.1l8.9-1v-0.5c0-1.3-0.6-2.3-1.7-2.8
	c-1.2-0.6-2.8-0.9-5-0.9c-1.7,0-3.4,0.2-5,0.5c-1.6,0.4-3.1,0.8-4.4,1.4c-0.6-0.4-1.1-1-1.5-1.9C2.2,20.9,2,20.1,2,19.1
	C2,18,2.3,17,2.9,16.3c0.6-0.7,1.4-1.3,2.6-1.8c1.3-0.5,2.9-0.9,4.7-1.1C12,13.2,13.7,13.1,15.3,13.1z M15.8,39.9
	c0.8,0,1.6-0.1,2.6-0.2c0.9-0.2,1.6-0.4,2.1-0.6v-5.5l-4.9,0.4c-1.3,0.1-2.3,0.4-3.1,0.8c-0.8,0.5-1.2,1.1-1.2,2
	c0,0.9,0.4,1.6,1.1,2.2C12.9,39.6,14.1,39.9,15.8,39.9z"/>
<path class="st0" d="M50.3,35.8c0,1.2,0.4,2,1.1,2.5c0.8,0.5,1.8,0.7,3.2,0.7c0.7,0,1.4-0.1,2.1-0.2c0.7-0.1,1.4-0.3,1.9-0.4
	c0.4,0.5,0.8,1.1,1.1,1.7c0.3,0.6,0.4,1.4,0.4,2.2c0,1.7-0.6,3.1-1.9,4.2c-1.3,1.1-3.6,1.6-6.8,1.6c-4,0-7.1-0.9-9.2-2.7
	c-2.2-1.8-3.2-4.8-3.2-8.9V7.5C39.3,7.4,40.1,7.2,41,7c0.9-0.2,1.9-0.2,3-0.2c2,0,3.6,0.4,4.7,1.1c1.1,0.7,1.7,2.2,1.7,4.5v4.4h8.9
	c0.3,0.5,0.5,1.1,0.8,1.9c0.2,0.7,0.4,1.6,0.4,2.5c0,1.6-0.4,2.7-1.1,3.4c-0.7,0.7-1.6,1.1-2.8,1.1h-6.2V35.8z"/>
<path class="st0" d="M81.8,13.1c1.9,0,3.7,0.3,5.5,0.8c1.8,0.5,3.4,1.3,4.7,2.4c1.4-0.9,2.9-1.7,4.6-2.2c1.7-0.6,3.8-0.9,6.2-0.9
	c1.7,0,3.4,0.2,5.1,0.7c1.7,0.5,3.1,1.2,4.4,2.1c1.3,1,2.3,2.3,3.1,3.9c0.8,1.6,1.2,3.6,1.2,5.9v21.5c-0.5,0.1-1.2,0.3-2.1,0.4
	c-1,0.1-2,0.2-3,0.2c-1,0-1.9-0.1-2.7-0.2c-0.8-0.1-1.5-0.4-2-0.8c-0.5-0.4-1-1-1.3-1.7c-0.3-0.7-0.4-1.6-0.4-2.8V26
	c0-1.4-0.4-2.4-1.2-3c-0.8-0.6-1.8-0.9-3.1-0.9c-0.6,0-1.3,0.1-2,0.4c-0.7,0.3-1.3,0.6-1.6,0.9c0,0.2,0.1,0.4,0.1,0.5
	c0,0.2,0,0.3,0,0.4v22.7c-0.5,0.1-1.2,0.3-2.2,0.4c-1,0.1-2,0.2-3,0.2c-1,0-1.9-0.1-2.7-0.2c-0.8-0.1-1.5-0.4-2-0.8s-1-1-1.3-1.7
	c-0.3-0.7-0.4-1.6-0.4-2.8V26c0-1.4-0.4-2.4-1.3-3c-0.8-0.6-1.9-0.9-3-0.9c-0.8,0-1.5,0.1-2.1,0.4c-0.6,0.3-1.1,0.5-1.5,0.7v23.9
	c-0.5,0.1-1.2,0.3-2.1,0.4c-1,0.1-2,0.2-3,0.2c-1,0-1.9-0.1-2.7-0.2c-0.8-0.1-1.5-0.4-2-0.8c-0.5-0.4-1-1-1.3-1.7
	c-0.3-0.7-0.4-1.6-0.4-2.8V21.7c0-1.2,0.3-2.2,0.8-2.9c0.5-0.7,1.2-1.4,2.1-2c1.5-1.1,3.5-2,5.8-2.7C77,13.4,79.4,13.1,81.8,13.1z"
	/>
<path class="st0" d="M191.5,37.3c0,3.5-1.3,6.2-3.9,8.1c-2.6,2-6.4,2.9-11.4,2.9c-1.9,0-3.7-0.1-5.3-0.4c-1.6-0.3-3-0.7-4.2-1.3
	c-1.2-0.6-2.1-1.3-2.7-2.1c-0.7-0.9-1-1.9-1-3.1c0-1.1,0.2-2,0.7-2.8c0.5-0.7,1-1.4,1.6-1.9c1.3,0.7,2.8,1.4,4.5,1.9
	c1.7,0.6,3.7,0.9,5.9,0.9c1.4,0,2.5-0.2,3.2-0.6c0.7-0.4,1.1-1,1.1-1.6c0-0.6-0.3-1.1-0.8-1.5c-0.5-0.4-1.5-0.7-2.7-0.9l-2-0.4
	c-4-0.8-6.9-2-8.8-3.6c-1.9-1.7-2.9-4-2.9-7.1c0-1.7,0.4-3.2,1.1-4.6c0.7-1.4,1.7-2.5,3.1-3.4c1.3-0.9,2.9-1.6,4.7-2.1
	c1.8-0.5,3.9-0.7,6.1-0.7c1.7,0,3.3,0.1,4.7,0.4c1.5,0.3,2.8,0.6,3.9,1.1c1.1,0.5,2,1.1,2.6,1.9c0.6,0.8,1,1.7,1,2.8
	c0,1-0.2,1.9-0.6,2.7c-0.4,0.7-0.9,1.4-1.5,1.9c-0.4-0.2-0.9-0.5-1.6-0.7c-0.7-0.2-1.5-0.5-2.4-0.7c-0.9-0.2-1.7-0.4-2.6-0.5
	c-0.9-0.1-1.7-0.2-2.4-0.2c-1.5,0-2.7,0.2-3.5,0.5s-1.2,0.9-1.2,1.6c0,0.5,0.2,0.9,0.7,1.2c0.5,0.3,1.3,0.6,2.6,0.9l2.1,0.5
	c4.4,1,7.5,2.4,9.3,4.1C190.6,32.3,191.5,34.6,191.5,37.3z"/>
<g>
	<path class="st1" d="M142.6,11.9c-0.8,0-1.4-0.6-1.4-1.4v-9c0-0.8,0.6-1.4,1.4-1.4s1.4,0.6,1.4,1.4v9
		C144.1,11.2,143.4,11.9,142.6,11.9z"/>
</g>
<g>
	<path class="st1" d="M142.6,61.4c-0.8,0-1.4-0.6-1.4-1.4v-9c0-0.8,0.6-1.4,1.4-1.4s1.4,0.6,1.4,1.4v9
		C144.1,60.7,143.4,61.4,142.6,61.4z"/>
</g>
<g>
	<path class="st1" d="M122.3,32.2h-9c-0.8,0-1.4-0.6-1.4-1.4c0-0.8,0.6-1.4,1.4-1.4h9c0.8,0,1.4,0.6,1.4,1.4
		C123.8,31.6,123.1,32.2,122.3,32.2z"/>
</g>
<g>
	<path class="st1" d="M171.9,32.2h-9c-0.8,0-1.4-0.6-1.4-1.4c0-0.8,0.6-1.4,1.4-1.4h9c0.8,0,1.4,0.6,1.4,1.4
		C173.4,31.6,172.7,32.2,171.9,32.2z"/>
</g>
<g>
	<path class="st1" d="M159.7,14.9c-0.4,0-0.7-0.1-1-0.4c-0.6-0.6-0.6-1.5,0-2l6.4-6.4c0.6-0.6,1.5-0.6,2,0c0.6,0.6,0.6,1.5,0,2
		l-6.4,6.4C160.5,14.8,160.1,14.9,159.7,14.9z"/>
</g>
<g>
	<path class="st1" d="M119.4,55.2c-0.4,0-0.7-0.1-1-0.4c-0.6-0.6-0.6-1.5,0-2l6.4-6.4c0.6-0.6,1.5-0.6,2,0c0.6,0.6,0.6,1.5,0,2
		l-6.4,6.4C120.2,55,119.8,55.2,119.4,55.2z"/>
</g>
<g>
	<path class="st1" d="M128.7,15.1c-0.4,0-0.7-0.1-1-0.4l-6.4-6.4c-0.6-0.6-0.6-1.5,0-2c0.6-0.6,1.5-0.6,2,0l6.4,6.4
		c0.6,0.6,0.6,1.5,0,2C129.4,14.9,129.1,15.1,128.7,15.1z"/>
</g>
<g>
	<path class="st1" d="M168,54.4c-0.4,0-0.7-0.1-1-0.4l-6.4-6.4c-0.6-0.6-0.6-1.5,0-2c0.6-0.6,1.5-0.6,2,0l6.4,6.4
		c0.6,0.6,0.6,1.5,0,2C168.8,54.3,168.4,54.4,168,54.4z"/>
</g>
<path class="st1" d="M154.1,18.9c-3.3-3.1-7.1-4.6-11.4-4.6c-4.3,0-8.1,1.6-11.5,4.7c-3.4,3.1-5,7.1-5,11.8c0,3.2,0.8,6.1,2.5,8.6
	c1.7,2.5,3.8,4.4,6.2,5.7c2.5,1.3,5,1.9,7.7,1.9c2.6,0,5.2-0.6,7.6-1.8c2.5-1.2,4.5-3.1,6.3-5.7c1.7-2.6,2.6-5.5,2.6-8.8
	C159.1,26,157.4,22,154.1,18.9z M142.6,38.7c-4.6,0-8.3-3.7-8.3-8.3c0-4.6,3.7-8.3,8.3-8.3c4.6,0,8.3,3.7,8.3,8.3
	C150.9,35,147.2,38.7,142.6,38.7z"/>
</svg>
